<svg width="87" height="52" viewBox="0 0 87 52" fill="none" xmlns="http://www.w3.org/2000/svg">
<g opacity="0.91">
<path d="M1.17188 38.1562C1.09375 38.026 1.05469 37.7917 1.05469 37.4531C1.05469 37.0365 1.09375 36.8281 1.17188 36.8281C1.40625 36.8281 1.71875 36.7891 2.10938 36.7109C2.5 36.6328 2.86458 36.5286 3.20312 36.3984C3.56771 36.2682 3.77604 36.125 3.82812 35.9688C3.98438 35.5 4.0625 34.3151 4.0625 32.4141V17.6484C4.0625 16.1641 3.98438 15.0964 3.82812 14.4453C3.77604 14.2891 3.56771 14.1458 3.20312 14.0156C2.86458 13.8594 2.48698 13.7292 2.07031 13.625C1.67969 13.5208 1.38021 13.4688 1.17188 13.4688C1.06771 13.4688 1.01562 13.2734 1.01562 12.8828C1.01562 12.4922 1.06771 12.2578 1.17188 12.1797C3.90625 12.2578 5.63802 12.2969 6.36719 12.2969C6.73177 12.2969 7.13542 12.2969 7.57812 12.2969C8.02083 12.2708 8.48958 12.2448 8.98438 12.2188L11.6406 12.1797C12.4219 12.1797 13.1901 12.2578 13.9453 12.4141C14.7266 12.5443 15.5078 12.7917 16.2891 13.1562C17.5391 13.7292 18.5156 14.5495 19.2188 15.6172C19.9479 16.6589 20.3125 17.8958 20.3125 19.3281C20.3125 20.5521 20 21.75 19.375 22.9219C18.724 24.0938 17.7474 25.0964 16.4453 25.9297C15.1693 26.737 13.724 27.1406 12.1094 27.1406C11.5625 27.1406 11.0156 27.0495 10.4688 26.8672C9.92188 26.6589 9.54427 26.4115 9.33594 26.125C9.15365 25.9427 9.07552 25.6953 9.10156 25.3828C9.15365 25.0443 9.21875 24.875 9.29688 24.875C9.84375 25.1354 10.5729 25.2656 11.4844 25.2656C12.7344 25.2656 13.724 24.7578 14.4531 23.7422C15.1823 22.7005 15.5469 21.3984 15.5469 19.8359C15.5469 18.0911 15.1953 16.7109 14.4922 15.6953C13.7891 14.6797 12.7083 14.1719 11.25 14.1719C10.1302 14.1719 9.375 14.263 8.98438 14.4453C8.67188 14.6016 8.51562 15.9557 8.51562 18.5078V32.4531C8.51562 33.9635 8.61979 35.0703 8.82812 35.7734C8.88021 35.9818 9.10156 36.1641 9.49219 36.3203C9.90885 36.4766 10.3516 36.6068 10.8203 36.7109C11.2891 36.7891 11.6406 36.8281 11.875 36.8281C11.9792 36.8281 12.0312 37.0495 12.0312 37.4922C12.0312 37.7266 12.0052 37.9479 11.9531 38.1562C9.11458 38 7.26562 37.9219 6.40625 37.9219C5.70312 37.9219 4.90885 37.9479 4.02344 38C3.16406 38.026 2.47396 38.0521 1.95312 38.0781L1.17188 38.1562ZM45 34.5234C42.5521 31.9714 41.3281 28.8594 41.3281 25.1875C41.3281 23.3646 41.6536 21.6589 42.3047 20.0703C42.9557 18.4557 43.8542 17.0495 45 15.8516C46.1458 14.6276 47.474 13.6771 48.9844 13C50.4948 12.2969 52.1094 11.9453 53.8281 11.9453C55.5469 11.9453 57.1615 12.2969 58.6719 13C60.1823 13.6771 61.5104 14.6276 62.6562 15.8516C63.8281 17.0495 64.7396 18.4557 65.3906 20.0703C66.0417 21.6589 66.3672 23.3646 66.3672 25.1875C66.3672 28.8594 65.1432 31.9714 62.6953 34.5234C61.0026 36.2943 59.1016 37.4661 56.9922 38.0391C54.8828 38.638 52.7734 38.638 50.6641 38.0391C48.5807 37.4661 46.6927 36.2943 45 34.5234ZM54.4531 36.4375C55.9375 36.4375 57.1875 35.9688 58.2031 35.0312C59.2448 34.0677 60.0391 32.7917 60.5859 31.2031C61.1328 29.5885 61.4062 27.8307 61.4062 25.9297C61.4062 23.9505 61.1458 22.0625 60.625 20.2656C60.2865 19.0938 59.7656 18.026 59.0625 17.0625C58.3854 16.0729 57.5521 15.2917 56.5625 14.7188C55.599 14.1458 54.4922 13.8594 53.2422 13.8594C51.7578 13.8594 50.4948 14.3281 49.4531 15.2656C48.4375 16.2031 47.6562 17.4661 47.1094 19.0547C46.5885 20.6432 46.3281 22.401 46.3281 24.3281C46.3281 26.2812 46.6016 28.1432 47.1484 29.9141C47.513 31.0859 48.0339 32.1667 48.7109 33.1562C49.388 34.1458 50.2083 34.9401 51.1719 35.5391C52.1615 36.138 53.2552 36.4375 54.4531 36.4375ZM76.9141 38.3906C75.2995 38.3906 72.9036 38.026 69.7266 37.2969C69.5703 36.6719 69.4141 35.9297 69.2578 35.0703C69.1276 34.1849 69.0104 33.3516 68.9062 32.5703C68.8281 31.7891 68.7891 31.2552 68.7891 30.9688C68.8411 30.7604 69.0495 30.6562 69.4141 30.6562C70.0911 30.6562 70.4688 30.7604 70.5469 30.9688C70.651 31.4375 70.8333 31.9583 71.0938 32.5312C71.3542 33.0781 71.7188 33.6641 72.1875 34.2891C72.6302 34.9401 73.2292 35.474 73.9844 35.8906C74.7656 36.2812 75.638 36.4766 76.6016 36.4766C77.8255 36.4766 78.8411 36.112 79.6484 35.3828C80.4557 34.6536 80.8594 33.5599 80.8594 32.1016C80.8594 31.0599 80.5469 30.2526 79.9219 29.6797C79.3229 29.0807 78.6719 28.5339 77.9688 28.0391C77.7865 27.9349 77.5 27.7656 77.1094 27.5312C76.7188 27.2969 76.3281 27.0625 75.9375 26.8281C75.5729 26.5677 75.2865 26.3854 75.0781 26.2812C74.5833 25.9688 74.1667 25.7083 73.8281 25.5C73.5156 25.2917 73.2161 25.0833 72.9297 24.875C72.6432 24.6406 72.2917 24.3542 71.875 24.0156C71.0417 23.3385 70.3906 22.5703 69.9219 21.7109C69.4792 20.8516 69.2578 19.901 69.2578 18.8594C69.2578 17.5573 69.6354 16.3854 70.3906 15.3438C71.1719 14.276 72.1745 13.4427 73.3984 12.8438C74.6224 12.2188 75.9115 11.9062 77.2656 11.9062C77.9948 11.9062 78.6328 11.9453 79.1797 12.0234C79.7266 12.1016 80.1432 12.1797 80.4297 12.2578C80.7161 12.3359 81.0677 12.4271 81.4844 12.5312C81.901 12.6354 82.5651 12.7917 83.4766 13C83.7891 14.7448 83.9453 16.75 83.9453 19.0156C83.9193 19.25 83.763 19.3672 83.4766 19.3672C82.7734 19.3672 82.3958 19.25 82.3438 19.0156C82.2396 18.2083 81.9531 17.4141 81.4844 16.6328C81.0156 15.8255 80.4036 15.1484 79.6484 14.6016C78.9193 14.0547 78.0859 13.7812 77.1484 13.7812C75.9505 13.7812 75.026 14.1198 74.375 14.7969C73.75 15.474 73.4375 16.3854 73.4375 17.5312C73.4375 18.2604 73.5677 18.8333 73.8281 19.25C74.0885 19.6406 74.4271 20.0703 74.8438 20.5391C75.1302 20.8516 75.599 21.2422 76.25 21.7109C76.901 22.1797 77.6302 22.6745 78.4375 23.1953C79.2448 23.6901 80.026 24.1589 80.7812 24.6016C82.2135 25.4349 83.3203 26.3464 84.1016 27.3359C84.8828 28.2995 85.2734 29.5885 85.2734 31.2031C85.2734 32.5833 84.8828 33.8203 84.1016 34.9141C83.3203 36.0078 82.2917 36.8672 81.0156 37.4922C79.7656 38.0911 78.3984 38.3906 76.9141 38.3906Z" fill="#474935"/>
<path d="M30.4688 38.2734C28.8281 38.2734 27.3307 37.8828 25.9766 37.1016C24.6484 36.2943 23.5807 35.2266 22.7734 33.8984C21.9922 32.5703 21.6016 31.099 21.6016 29.4844C21.6016 27.8438 21.9922 26.3724 22.7734 25.0703C23.5547 23.7422 24.6094 22.6875 25.9375 21.9062C27.2917 21.125 28.7891 20.7344 30.4297 20.7344C32.0703 20.7344 33.5547 21.125 34.8828 21.9062C36.237 22.6875 37.3047 23.7422 38.0859 25.0703C38.8932 26.3984 39.2969 27.8698 39.2969 29.4844C39.2969 31.099 38.9062 32.5703 38.125 33.8984C37.3438 35.2266 36.2891 36.2943 34.9609 37.1016C33.6328 37.8828 32.1354 38.2734 30.4688 38.2734ZM30.8594 36.4375C31.6927 36.4375 32.3958 36.1641 32.9688 35.6172C33.5417 35.0703 33.9844 34.3411 34.2969 33.4297C34.6094 32.4922 34.7656 31.4896 34.7656 30.4219C34.7656 29.0156 34.5703 27.7266 34.1797 26.5547C33.8151 25.3568 33.2682 24.3932 32.5391 23.6641C31.8359 22.9349 30.9635 22.5703 29.9219 22.5703C29.1146 22.5703 28.4115 22.8438 27.8125 23.3906C27.2396 23.9375 26.7969 24.6667 26.4844 25.5781C26.1979 26.4896 26.0547 27.4922 26.0547 28.5859C26.0547 29.9922 26.237 31.2943 26.6016 32.4922C26.9922 33.6641 27.5521 34.6146 28.2812 35.3438C29.0104 36.0729 29.8698 36.4375 30.8594 36.4375Z" fill="#235789"/>
</g>
</svg>
